<?xml version="1.0" standalone="no"?>
<!DOCTYPE svg PUBLIC "-//W3C//DTD SVG 20010904//EN"
 "http://www.w3.org/TR/2001/REC-SVG-20010904/DTD/svg10.dtd">
<svg version="1.0" xmlns="http://www.w3.org/2000/svg"
 width="400.000000pt" height="400.000000pt" viewBox="0 0 400.000000 400.000000"
 preserveAspectRatio="xMidYMid meet">
<metadata>
Created by potrace 1.11, written by Peter Selinger 2001-2013
</metadata>
<g transform="translate(0.000000,400.000000) scale(0.100000,-0.100000)"
fill="#000000" stroke="none">
<path d="M372 3041 c-4 -4 -7 -156 -7 -338 l0 -333 25 -1 c79 -3 289 2 315 7
85 18 172 87 219 173 67 124 45 286 -53 388 -83 87 -137 105 -334 107 -86 1
-161 0 -165 -3z m326 -243 c21 -18 42 -64 42 -93 0 -62 -55 -115 -120 -115
-24 0 -30 4 -31 23 -3 53 2 200 6 207 6 10 85 -7 103 -22z"/>
<path d="M1019 3045 c-1 0 -2 -152 -3 -337 -1 -332 -1 -338 19 -339 20 -1 125
-1 177 0 26 1 28 3 27 49 -1 26 -1 53 0 60 2 24 30 11 61 -28 23 -30 31 -48
28 -72 l-3 -33 -155 0 -155 0 0 -338 0 -337 42 -1 c24 -1 54 -1 68 -1 14 0 45
0 69 1 l44 1 -1 60 c-3 80 17 80 77 1 l46 -60 93 -3 c50 -2 113 -2 139 0 l48
3 -65 86 c-36 47 -65 90 -65 95 0 5 6 11 14 14 38 15 107 164 99 215 -2 15 0
20 6 14 5 -6 12 -30 16 -55 3 -25 10 -70 15 -100 6 -30 12 -68 14 -85 2 -16 9
-70 16 -118 8 -54 10 -91 4 -95 -5 -4 -9 -107 -8 -242 1 -196 4 -242 18 -274
62 -146 223 -219 371 -167 110 38 191 150 196 271 1 25 9 54 18 65 15 18 15
19 -1 6 -16 -12 -18 -11 -18 3 0 9 6 16 13 16 9 0 9 2 0 8 -6 4 -11 24 -11 44
0 26 4 36 12 31 6 -4 20 -9 30 -10 28 -5 33 -13 16 -23 -12 -8 -12 -10 -1 -10
11 0 11 -3 1 -15 -9 -10 -9 -15 -1 -15 18 0 12 -20 -6 -21 -15 0 -15 -2 -3 -7
12 -6 15 -34 15 -160 0 -85 3 -158 6 -164 6 -9 72 -12 185 -9 l31 1 -1 111
c-1 61 1 114 4 119 3 4 43 -47 89 -114 l85 -121 103 1 c57 1 106 4 109 7 5 5
8 416 5 622 l-1 50 -110 0 c-103 0 -110 -1 -111 -20 0 -11 -1 -64 -1 -117 -1
-54 -4 -98 -7 -98 -3 0 -12 10 -20 23 -7 12 -44 65 -82 118 l-68 96 -108 -1
-108 -1 -1 -30 c0 -21 -5 -29 -15 -27 -8 2 -11 0 -6 -4 4 -4 -1 -17 -10 -28
-18 -21 -18 -21 5 -2 12 11 25 16 29 12 4 -4 1 -11 -7 -16 -11 -7 -12 -10 -2
-10 7 0 10 -5 7 -10 -4 -6 -11 -7 -17 -4 -7 4 -8 2 -4 -5 4 -6 12 -9 17 -6 12
8 11 -2 -2 -27 -6 -12 -7 -18 -1 -14 6 3 9 -5 8 -19 0 -14 -5 -25 -11 -25 -5
0 -4 -4 4 -9 15 -10 3 -21 -20 -18 -26 4 -39 18 -39 41 0 29 10 39 25 26 8 -7
12 -5 12 4 0 8 -8 13 -18 11 -14 -3 -17 4 -15 53 0 36 5 57 13 57 6 0 15 3 19
7 3 4 -3 6 -15 3 -15 -3 -21 1 -21 15 0 10 -5 22 -11 25 -14 9 -9 75 9 104 10
16 10 21 1 16 -6 -5 -10 -4 -7 1 6 9 14 64 25 164 17 154 23 180 39 180 12 0
12 -4 4 -20 -6 -11 -7 -20 -2 -20 12 0 9 -73 -3 -82 -6 -5 -5 -8 3 -8 7 0 10
-5 7 -11 -4 -6 -14 -8 -22 -5 -8 3 -11 1 -8 -4 3 -6 14 -10 23 -10 15 -1 14
-3 -3 -17 -18 -14 -18 -15 -2 -9 13 4 17 2 14 -6 -2 -7 -11 -12 -20 -12 -9 1
-14 -2 -11 -7 3 -5 12 -9 20 -9 8 0 14 -5 14 -11 0 -6 -8 -8 -17 -5 -15 5 -15
4 1 -9 11 -8 15 -15 8 -15 -8 0 -9 -7 -2 -24 6 -17 5 -26 -3 -30 -8 -3 -8 -5
2 -5 11 -1 10 -6 -3 -26 -11 -17 -12 -23 -3 -19 9 3 12 -4 11 -23 -1 -16 -3
-36 -3 -46 -1 -10 -5 -16 -10 -12 -5 3 -12 1 -15 -4 -4 -5 2 -8 11 -6 10 2 18
4 18 6 0 1 17 3 38 4 21 1 37 -3 37 -9 0 -6 4 -5 9 2 4 8 14 13 22 12 8 -1 37
-2 65 -1 l52 1 -2 111 c0 61 1 115 4 119 3 5 23 -19 45 -52 22 -34 45 -66 51
-72 5 -6 26 -33 45 -61 l34 -50 103 2 c57 1 106 4 109 7 10 10 4 659 -6 666
-8 5 -189 6 -211 1 -3 0 -4 -53 -3 -116 1 -63 -1 -115 -5 -115 -4 0 -23 24
-42 53 -19 28 -56 81 -82 117 l-47 66 -101 -1 c-62 0 -99 4 -97 10 2 6 44 11
94 11 50 1 95 4 101 8 5 3 9 55 9 116 0 60 1 112 4 114 2 2 40 -48 84 -111 43
-63 85 -117 92 -120 8 -3 58 -6 113 -7 l100 -1 0 30 c4 213 0 638 -5 643 -10
10 -206 8 -212 -2 -4 -5 -6 -58 -6 -118 1 -97 -6 -131 -20 -95 -2 7 -39 60
-80 117 l-76 105 -108 0 -108 0 0 -82 c0 -47 -4 -81 -9 -80 -5 1 -20 -23 -33
-53 l-22 -55 -1 133 c0 119 -2 132 -17 133 -93 4 -187 3 -196 -3 -8 -5 -12
-75 -12 -222 0 -118 -4 -218 -8 -222 -4 -4 -15 -8 -25 -9 -9 -1 -27 -5 -40 -9
-39 -13 -63 18 -61 78 1 28 0 126 -1 219 l-2 167 -27 1 c-129 5 -191 3 -192
-6 -1 -5 -2 -98 -3 -205 l-1 -195 -25 3 c-14 2 -35 4 -47 4 -13 1 -23 2 -23 3
0 0 7 21 14 46 20 64 15 135 -13 192 -24 49 -114 137 -142 137 -8 0 -19 3 -23
7 -3 4 -14 9 -24 11 -12 2 -376 10 -383 7z m355 -217 c29 -30 30 -65 2 -92
-21 -22 -34 -26 -81 -26 -45 0 -55 3 -56 18 -1 19 -1 117 0 118 1 0 28 -1 60
-1 38 -2 65 -8 75 -17z m961 -254 c0 -190 0 -195 -20 -189 -11 3 -27 8 -35 10
-8 2 -15 4 -15 5 0 1 -11 4 -24 6 -14 2 -27 7 -29 9 -3 3 9 40 27 84 17 44 31
87 31 95 0 13 59 176 64 176 1 0 2 -88 1 -196z m-31 -215 c3 -3 -4 -5 -14 -6
-11 -1 -20 2 -20 7 0 8 25 8 34 -1z m6 -153 c0 -2 -7 -7 -16 -10 -8 -3 -12 -2
-9 4 6 10 25 14 25 6z m26 -41 c-1 -26 -5 -43 -11 -41 -5 2 -8 10 -7 17 2 8 5
25 7 39 7 48 11 41 11 -15z m-960 -37 c25 -25 26 -62 4 -91 -19 -24 -28 -27
-81 -27 -40 0 -59 4 -60 13 -1 13 -1 93 0 114 1 16 120 9 137 -9z m848 -454
c3 -8 2 -12 -4 -9 -6 3 -10 10 -10 16 0 14 7 11 14 -7z m-254 -326 c0 4 19 8
42 9 28 1 37 -2 27 -8 -12 -7 -12 -9 1 -10 10 0 11 -2 3 -6 -8 -3 -10 -11 -5
-21 9 -21 9 -79 -1 -109 -14 -38 -76 -47 -109 -15 -12 12 -18 38 -20 89 -4 77
1 86 40 72 12 -5 22 -5 22 -1z"/>
<path d="M1936 1322 c-2 -4 -1 -14 4 -22 7 -11 9 -9 7 8 -1 24 -3 26 -11 14z"/>
<path d="M1960 1326 c0 -2 8 -10 18 -17 15 -13 16 -12 3 4 -13 16 -21 21 -21
13z"/>
<path d="M1999 1273 c-12 -16 -12 -17 2 -6 9 7 19 10 22 6 4 -3 7 -1 7 5 0 17
-16 15 -31 -5z"/>
<path d="M2015 1251 c-3 -5 -2 -12 3 -15 5 -3 9 1 9 9 0 17 -3 19 -12 6z"/>
<path d="M3019 3045 c-5 0 -3 -659 2 -666 7 -11 190 -16 206 -6 7 4 11 36 10
76 -1 64 11 101 32 101 4 0 29 -40 55 -90 53 -101 34 -92 186 -92 33 0 74 1
91 1 l31 1 -20 33 c-11 17 -36 63 -56 100 -44 81 -68 124 -108 195 l-30 53 33
47 c19 26 39 54 46 62 60 73 133 171 133 177 0 5 -62 8 -137 8 l-138 0 -51
-69 c-28 -37 -55 -68 -59 -67 -5 0 -9 31 -10 69 l0 67 -107 0 c-60 0 -109 0
-109 0z"/>
<path d="M372 2340 c-5 -4 -9 -623 -3 -665 1 -11 255 -12 323 -1 119 19 235
132 263 256 11 48 7 147 -7 173 -6 12 -10 22 -8 22 9 0 -43 85 -69 113 -41 42
-116 88 -161 98 -40 8 -327 12 -338 4z m346 -270 c52 -77 -1 -179 -95 -180
-31 0 -33 2 -33 38 -1 20 -2 72 -3 114 -2 70 0 78 18 81 37 6 89 -19 113 -53z"/>
<path d="M3019 2345 c-5 -1 -3 -659 2 -666 5 -9 80 -12 190 -10 26 1 26 2 26
75 0 48 6 81 15 95 14 20 17 17 69 -74 l53 -95 43 -1 c24 0 72 0 108 0 120 0
110 -5 82 44 -13 23 -39 69 -58 102 -18 33 -48 87 -66 120 -68 122 -67 120
-50 141 9 10 55 71 103 134 48 63 90 120 95 125 5 7 -41 10 -134 10 l-142 0
-54 -73 c-30 -40 -57 -69 -60 -63 -4 6 -6 37 -4 71 1 33 -1 61 -5 61 -6 1
-209 5 -213 4z"/>
<path d="M2310 2040 c0 -5 5 -10 11 -10 5 0 7 5 4 10 -3 6 -8 10 -11 10 -2 0
-4 -4 -4 -10z"/>
<path d="M2296 1847 c3 -10 9 -15 12 -12 3 3 0 11 -7 18 -10 9 -11 8 -5 -6z"/>
<path d="M2291 1807 c-8 -10 -7 -14 2 -14 8 0 14 6 14 14 0 7 -1 13 -2 13 -2
0 -8 -6 -14 -13z"/>
<path d="M2279 1733 c-13 -16 -12 -17 4 -4 16 13 21 21 13 21 -2 0 -10 -8 -17
-17z"/>
<path d="M2267 1699 c7 -9 10 -19 6 -22 -3 -4 -1 -7 5 -7 17 0 15 16 -5 31
-16 12 -17 12 -6 -2z"/>
<path d="M372 1635 c-3 -5 -6 -157 -7 -338 0 -284 2 -327 15 -328 69 -4 296 1
322 6 43 10 116 48 150 79 15 14 41 46 58 73 115 182 35 416 -170 498 -36 14
-78 18 -203 19 -101 1 -161 -2 -165 -9z m323 -235 c86 -71 37 -210 -75 -210
-24 0 -30 4 -31 23 -1 23 0 184 1 203 0 14 83 2 105 -16z"/>
<path d="M1022 1635 c-4 -5 -7 -157 -7 -337 l0 -328 57 -1 c32 -1 67 -1 78 -1
11 0 36 0 55 1 l35 1 -1 48 c-1 26 -1 53 0 60 2 27 32 9 79 -51 39 -50 55 -63
73 -61 13 1 75 3 136 3 l113 1 -35 48 c-19 26 -49 65 -66 88 l-30 41 31 34
c69 73 94 181 65 270 -14 40 -33 69 -77 112 -32 31 -67 57 -77 57 -10 0 -21 3
-25 7 -12 13 -39 15 -219 17 -115 1 -181 -2 -185 -9z m353 -208 c26 -26 27
-61 4 -91 -18 -23 -28 -26 -80 -26 -64 0 -61 -4 -61 75 0 25 1 49 1 54 2 16
118 5 136 -12z"/>
<path d="M3015 1308 l0 -338 25 -1 c40 -1 122 -1 162 0 l37 1 -2 74 c-1 68 10
106 32 106 3 0 28 -41 55 -90 33 -61 55 -90 68 -91 23 -1 68 -1 163 0 l75 1
-19 33 c-10 17 -34 61 -53 97 -39 71 -64 118 -110 197 -17 31 -26 58 -22 65
16 28 186 248 195 253 5 4 9 12 9 18 0 9 -34 12 -132 11 -73 -1 -136 -2 -140
-3 -3 0 -29 -33 -58 -71 -29 -39 -55 -68 -59 -66 -3 2 -6 35 -5 73 l2 68 -112
0 -111 1 0 -338z"/>
<path d="M2280 1445 c0 -2 6 -8 13 -14 10 -8 14 -7 14 2 0 8 -6 14 -14 14 -7
0 -13 -1 -13 -2z"/>
</g>
</svg>
