<?xml version="1.0" standalone="no"?>
<!DOCTYPE svg PUBLIC "-//W3C//DTD SVG 20010904//EN"
 "http://www.w3.org/TR/2001/REC-SVG-20010904/DTD/svg10.dtd">
<svg version="1.0" xmlns="http://www.w3.org/2000/svg"
 width="265.000000pt" height="265.000000pt" viewBox="0 0 265.000000 265.000000"
 preserveAspectRatio="xMidYMid meet">
<metadata>
Created by potrace 1.11, written by Peter Selinger 2001-2013
</metadata>
<g transform="translate(0.000000,265.000000) scale(0.100000,-0.100000)"
fill="#000000" stroke="none">
<path d="M472 2183 c-33 -6 -91 -66 -98 -100 -6 -29 -8 -30 -58 -31 -86 0
-138 -38 -152 -109 -5 -28 -10 -31 -52 -36 -61 -7 -112 -58 -112 -112 0 -44
24 -103 45 -111 13 -5 15 -68 15 -545 0 -433 3 -546 14 -572 17 -42 67 -84
114 -96 20 -5 176 -8 347 -7 277 1 314 3 347 19 74 37 95 85 94 215 -1 105
-11 95 104 93 87 -1 142 25 169 82 18 39 20 62 20 332 0 322 -2 334 -64 381
-36 27 -44 29 -132 29 -51 0 -93 2 -94 5 -6 39 -3 52 13 61 11 6 28 29 38 51
35 79 -16 165 -104 175 -25 3 -46 11 -47 17 -5 81 -61 127 -154 128 -49 1 -53
3 -58 27 -16 77 -99 122 -195 104z m638 -784 c0 -32 5 -61 10 -64 6 -3 10 -19
10 -35 0 -16 -4 -32 -10 -35 -6 -4 -10 -69 -10 -161 l0 -155 -67 3 -67 3 -1
245 c-1 135 0 248 2 251 1 4 32 7 68 7 l65 0 0 -59z"/>
<path d="M2379 1438 c-1 -4 -1 -480 0 -495 1 -7 10 -13 21 -13 18 0 20 7 20
58 0 50 4 62 33 95 l33 38 47 -76 c25 -41 49 -84 52 -95 4 -13 15 -20 31 -20
30 0 30 0 -1 52 -14 24 -41 71 -61 106 l-36 63 48 52 c27 29 52 54 56 55 16 7
7 22 -13 22 -23 0 -30 -6 -126 -119 l-63 -72 0 175 c0 169 -1 176 -20 176 -11
0 -20 -1 -21 -2z"/>
<path d="M1454 1280 c-12 -4 -33 -23 -48 -42 l-26 -33 0 38 c0 32 -3 37 -22
37 l-23 0 1 -172 c1 -169 1 -173 22 -176 21 -3 22 0 22 103 0 77 4 116 16 140
16 34 57 68 81 68 7 0 13 11 13 24 0 25 -4 26 -36 13z"/>
<path d="M2078 1270 c-21 -11 -38 -25 -38 -30 0 -6 -4 -10 -10 -10 -5 0 -10
11 -10 25 0 18 -5 25 -20 25 -11 0 -20 -3 -21 -7 -1 -11 -1 -272 0 -310 1 -26
5 -33 21 -33 19 0 20 7 20 130 l0 130 31 29 c51 49 120 53 135 8 5 -12 8 -83
8 -157 1 -132 1 -135 24 -138 l22 -3 -2 155 c-3 143 -5 157 -24 176 -30 31
-90 35 -136 10z"/>
<path d="M1588 1273 c-10 -23 0 -285 11 -307 30 -56 101 -60 166 -10 l47 35
-4 -28 c-2 -22 1 -29 18 -31 22 -3 22 -1 22 173 0 173 0 176 -21 173 -20 -3
-21 -9 -22 -132 l-1 -128 -32 -29 c-41 -37 -78 -46 -111 -28 -26 15 -26 15
-29 167 -2 142 -4 152 -22 152 -10 0 -20 -3 -22 -7z"/>
</g>
</svg>
